<svg width="15" height="15" viewBox="0 0 15 15" fill="none" xmlns="http://www.w3.org/2000/svg">
<path fill-rule="evenodd" clip-rule="evenodd" d="M1 7.5C1 3.9159 3.91567 1 7.49987 1C11.0841 1 14 3.9159 14 7.5C14 11.0841 11.0841 14 7.49987 14C3.91567 14 1 11.0841 1 7.5ZM1.85247 7.5C1.85247 10.614 4.38585 13.1475 7.49987 13.1475C10.6139 13.1475 13.1475 10.614 13.1474 7.5C13.1474 4.38598 10.6139 1.85251 7.49987 1.85251C4.38582 1.85251 1.85247 4.38595 1.85247 7.5Z" fill="#53B43B"/>
<path fill-rule="evenodd" clip-rule="evenodd" d="M0.75 7.5C0.75 3.77784 3.77759 0.75 7.49987 0.75C11.2221 0.75 14.25 3.77782 14.25 7.5C14.25 11.2222 11.2221 14.25 7.49987 14.25C3.77759 14.25 0.75 11.2222 0.75 7.5ZM7.49987 1.25C4.05375 1.25 1.25 4.05396 1.25 7.5C1.25 10.946 4.05375 13.75 7.49987 13.75C10.946 13.75 13.75 10.946 13.75 7.5C13.75 4.05398 10.946 1.25 7.49987 1.25ZM7.49987 2.10251C4.52389 2.10251 2.10247 4.52401 2.10247 7.5C2.10247 10.476 4.52393 12.8975 7.49987 12.8975C10.4758 12.8975 12.8975 10.4759 12.8974 7.5C12.8974 4.52405 10.4759 2.10251 7.49987 2.10251ZM1.60247 7.5C1.60247 4.24788 4.24774 1.60251 7.49987 1.60251C10.752 1.60251 13.3974 4.24791 13.3974 7.5C13.3975 10.7521 10.752 13.3975 7.49987 13.3975C4.24777 13.3975 1.60247 10.7521 1.60247 7.5Z" fill="#53B43B"/>
<path d="M9.84762 6.0908C10.0147 5.89704 10.1172 5.44048 9.7565 5.13344C9.5021 4.91689 9.14215 4.98224 8.94774 5.19802L6.10382 8.38921L5.11282 7.27989C4.96094 7.08614 4.64199 6.8544 4.23572 7.15072C4.08384 7.2571 3.85223 7.68259 4.1294 8.07389L5.69375 9.83284C5.76969 9.90123 5.89499 10 6.11901 10C6.32025 10 6.47592 9.87083 6.5101 9.83284L9.84762 6.0908Z" fill="#53B43B"/>
</svg>
